<?xml version="1.0" encoding="UTF-8"?>
<svg version="1.1" xmlns="http://www.w3.org/2000/svg" width="222" height="222">
<path d="M0 0 C6.19840119 5.12344371 11.85331268 10.71814972 17.52514648 16.41162109 C18.57028567 17.45704281 19.61564601 18.50224346 20.66120911 19.54724121 C23.48112929 22.36687602 26.29796869 25.18957008 29.11424136 28.01284742 C32.06459894 30.96948186 35.01781329 33.9232601 37.97071838 36.87734985 C43.55405203 42.46378408 49.13483296 48.05276117 54.71468836 53.64266932 C61.07066478 60.0098465 67.42950143 66.37416394 73.78857315 72.73824954 C86.86222104 85.82233299 99.9322948 98.90998143 113 112 C111.3916027 115.39873862 109.60787133 117.63757739 106.9296875 120.30078125 C106.115 121.11353516 105.3003125 121.92628906 104.4609375 122.76367188 C103.60757813 123.60478516 102.75421875 124.44589844 101.875 125.3125 C101.04484375 126.14201172 100.2146875 126.97152344 99.359375 127.82617188 C95.73297462 131.42699419 92.09916159 134.96789414 88.20703125 138.28125 C82.07368901 143.55718544 76.49581053 149.43759746 70.8125 155.1875 C68.5094642 157.51727457 66.20302912 159.84360767 63.89453125 162.16796875 C63.11780815 162.95713936 63.11780815 162.95713936 62.32539368 163.76225281 C59.37010548 166.73728848 56.32686098 169.44741247 53 172 C50.53199953 170.84826645 48.95216435 169.95216435 47 168 C46.52047335 170.70827004 46.04136769 173.41661344 45.5625 176.125 C45.42779297 176.88554687 45.29308594 177.64609375 45.15429688 178.4296875 C44.41440873 182.61637161 43.69026923 186.80477147 43 191 C40.13275314 190.42655063 39.1385485 190.1385485 37 188 C36.154375 188.85722656 35.30875 189.71445313 34.4375 190.59765625 C23.95980401 201.17444675 23.95980401 201.17444675 18.23828125 205.96484375 C16.25188726 207.77097162 14.40116718 209.63067935 12.54296875 211.56640625 C11.91962646 212.21101807 11.29628418 212.85562988 10.65405273 213.51977539 C9.39911483 214.82491725 8.15479271 216.14036259 6.92211914 217.46655273 C6.34453857 218.06540283 5.76695801 218.66425293 5.171875 219.28125 C4.6572168 219.82845703 4.14255859 220.37566406 3.61230469 220.93945312 C2 222 2 222 0.17759132 221.8225174 C-2.72612816 220.72572767 -4.26485945 219.10075818 -6.45376587 216.90026855 C-7.33986038 216.01685287 -8.2259549 215.13343719 -9.13890076 214.22325134 C-10.11308127 213.23685887 -11.08712137 212.2503277 -12.06103516 211.26367188 C-13.09219749 210.2300262 -14.12402893 209.19704766 -15.15647888 208.16468811 C-17.95839797 205.35935606 -20.75103922 202.54494677 -23.54226732 199.72898293 C-26.46249118 196.78629436 -29.39160065 193.85247968 -32.31991577 190.91784668 C-37.86581677 185.35745342 -43.40445036 179.78988313 -48.94016492 174.21935034 C-58.85974203 164.23785118 -68.79153473 154.26851333 -78.72604406 144.30187845 C-82.2141483 140.80191998 -85.69904984 137.29881141 -89.1813395 133.79306793 C-91.34436587 131.61624306 -93.50935972 129.44138262 -95.67480659 127.26696587 C-96.68110143 126.25558955 -97.68651748 125.24333801 -98.6910038 124.23016548 C-100.05844947 122.8510828 -101.42923201 121.47531118 -102.80020142 120.09973145 C-103.56746866 119.32764595 -104.33473591 118.55556046 -105.12525368 117.76007843 C-106.88836656 115.93658452 -106.88836656 115.93658452 -109 115 C-108.12012873 110.50628589 -105.59412053 108.03079334 -102.5 104.8125 C-101.90630615 104.184646 -101.3126123 103.55679199 -100.70092773 102.90991211 C-93.22044133 95.06896465 -85.50408489 87.45054246 -77.796875 79.83325195 C-71.51036283 73.63469058 -71.51036283 73.63469058 -65.58984375 67.08984375 C-59.73232207 60.22427107 -53.09163759 54.03992164 -46.67919922 47.69970703 C-38.88998132 40.0971017 -38.88998132 40.0971017 -31.55859375 32.0625 C-25.97840222 25.49756879 -19.67043237 19.56733029 -13.5625 13.5 C-12.24520941 12.18773415 -10.92815014 10.87523605 -9.61132812 9.5625 C-6.4102139 6.37231494 -3.20598135 3.18529349 0 0 Z M-4.0078125 26.875 C-5.24144531 28.10669922 -5.24144531 28.10669922 -6.5 29.36328125 C-7.36625 30.23339844 -8.2325 31.10351562 -9.125 32 C-9.96804687 32.83917969 -10.81109375 33.67835937 -11.6796875 34.54296875 C-16.06385435 38.93394331 -20.27684735 43.39597681 -24.31982422 48.1015625 C-27.81084587 52.04608217 -31.63318706 55.67167804 -35.39453125 59.35546875 C-38.54443775 62.46624598 -41.5788596 65.61359379 -44.46875 68.96875 C-48.73139913 73.91227222 -53.38200168 78.4321549 -58.0390625 83 C-61.94878353 86.86443468 -65.63625091 90.83158903 -69.22314453 94.99609375 C-72.31130895 98.4788711 -75.62624821 101.73099185 -78.9375 105 C-79.96327148 106.01900391 -79.96327148 106.01900391 -81.00976562 107.05859375 C-82.67087159 108.70808359 -84.33428513 110.3551668 -86 112 C-84.60961241 115.13349687 -82.9925774 117.25516164 -80.57052612 119.66998291 C-79.86098785 120.38227051 -79.15144958 121.09455811 -78.42041016 121.82843018 C-77.64213867 122.59951111 -76.86386719 123.37059204 -76.06201172 124.16503906 C-75.24241974 124.9849231 -74.42282776 125.80480713 -73.57839966 126.64953613 C-70.86687568 129.35966624 -68.14833508 132.06264248 -65.4296875 134.765625 C-63.5488083 136.64277429 -61.66832513 138.520312 -59.7883606 140.39837646 C-55.34417974 144.83634406 -50.89492578 149.26918925 -46.44382393 153.70021415 C-41.37584024 158.74583409 -36.31354229 163.79714216 -31.25171256 168.84893465 C-20.84078771 179.23896097 -10.42274494 189.62183072 0 200 C1.12118167 199.04492368 2.24152366 198.08886158 3.36151123 197.13238525 C3.98549175 196.60008427 4.60947227 196.06778328 5.2523613 195.51935196 C7.28271732 193.75421286 9.19381877 191.90425282 11.078125 189.984375 C11.76390625 189.29085937 12.4496875 188.59734375 13.15625 187.8828125 C13.8471875 187.17898437 14.538125 186.47515625 15.25 185.75 C16.64867742 184.32579927 18.04962519 182.90382367 19.453125 181.484375 C20.06317383 180.86272461 20.67322266 180.24107422 21.30175781 179.60058594 C23 178 23 178 26 176 C25.360625 175.401875 24.72125 174.80375 24.0625 174.1875 C22 172 22 172 21 169 C21.97839844 168.95101562 22.95679688 168.90203125 23.96484375 168.8515625 C31.16248379 168.44107762 38.00303049 167.84130777 45 166 C40.27275673 160.2691251 35.15105149 155.03065324 29.87717247 149.80200768 C28.35755763 148.29530542 26.84121987 146.78537054 25.32563782 145.27461243 C22.11574938 142.07606385 18.90190675 138.88150697 15.6875 135.6875 C11.94305273 131.96667525 8.20025531 128.2442208 4.46161842 124.51755714 C2.96738292 123.02980412 1.47017115 121.54509099 -0.0271759 120.06047058 C-0.92868881 119.16226089 -1.83020172 118.26405121 -2.7590332 117.33862305 C-3.55590042 116.54699265 -4.35276764 115.75536224 -5.17378235 114.93974304 C-7 113 -7 113 -8 111 C-7.03320312 111.02320312 -6.06640625 111.04640625 -5.0703125 111.0703125 C9.95048432 111.52937674 9.95048432 111.52937674 23 105 C26.83840314 101.06058625 27.29837206 97.81710675 27.4375 92.5 C27.23646277 85.74582792 27.23646277 85.74582792 24 80 C16.16016515 75.81008826 7.63586993 76.66955274 -1 76.8125 C-6.28 76.874375 -11.56 76.93625 -17 77 C-17 95.15 -17 113.3 -17 132 C-17.99 132.495 -17.99 132.495 -19 133 C-16.36 136.63 -13.72 140.26 -11 144 C-12 145 -12 145 -14.68383789 145.11352539 C-15.85164795 145.10828857 -17.01945801 145.10305176 -18.22265625 145.09765625 C-20.11274414 145.09282227 -20.11274414 145.09282227 -22.04101562 145.08789062 C-23.38151109 145.07953403 -24.72200588 145.07106907 -26.0625 145.0625 C-27.40689942 145.0574866 -28.7513006 145.05292342 -30.09570312 145.04882812 C-33.39717941 145.03699488 -36.69856803 145.02050971 -40 145 C-39.59007812 144.39671875 -39.18015625 143.7934375 -38.7578125 143.171875 C-38.21898437 142.37265625 -37.68015625 141.5734375 -37.125 140.75 C-36.59132812 139.96109375 -36.05765625 139.1721875 -35.5078125 138.359375 C-34.18177985 136.28444308 -33.05071825 134.22385028 -32 132 C-32.66 132 -33.32 132 -34 132 C-34 108.9 -34 85.8 -34 62 C-25.13125 62.0825 -16.2625 62.165 -7.125 62.25 C-4.34465332 62.26579102 -1.56430664 62.28158203 1.30029297 62.29785156 C3.53094517 62.32724592 5.7615791 62.35807607 7.9921875 62.390625 C9.69677124 62.39231689 9.69677124 62.39231689 11.43579102 62.39404297 C19.99302573 62.54608918 28.00155421 63.77626445 34.375 69.9375 C40.26875701 77.75677421 42.17774589 88.43613577 41 98 C39.72024906 104.35272052 37.86726121 111.21261841 32.36328125 115.1796875 C29.06118951 117.14231903 25.60554923 118.68889119 22 120 C27.52650334 126.74080425 33.69449559 132.8071129 39.875 138.9375 C40.95596274 140.01343727 42.03669383 141.08960731 43.1171875 142.16601562 C45.74212641 144.78003292 48.37018628 147.39088596 51 150 C56.04560354 145.73215141 60.93645889 141.33975128 65.75 136.8125 C66.44520752 136.16047607 67.14041504 135.50845215 67.85668945 134.83666992 C72.90275103 130.08404495 77.82806405 125.23138631 82.66796875 120.26953125 C84.99820053 118.00175124 87.42839349 115.98694287 90 114 C88.59247134 110.81346012 86.92164831 108.6723125 84.46336365 106.21612549 C83.73002808 105.47859543 82.9966925 104.74106537 82.24113464 103.98118591 C81.03400566 102.78248619 81.03400566 102.78248619 79.80249023 101.55957031 C78.95524384 100.71042557 78.10799744 99.86128082 77.2350769 98.98640442 C74.9144933 96.66275263 72.5895025 94.3436255 70.26231265 92.02659321 C67.82914519 89.60221412 65.4012561 87.1725596 62.97267151 84.74359131 C58.89639733 80.66825303 54.81627157 76.5968036 50.73364258 72.52783203 C46.00759239 67.81753291 41.28681506 63.10200167 36.56900066 58.38345456 C32.03404576 53.84789039 27.49624562 49.31518477 22.95683479 44.78408051 C21.02265068 42.85343481 19.08932533 40.92193508 17.15664482 38.98978424 C14.46346714 36.29779304 11.76605321 33.61007234 9.06811523 30.92285156 C8.26133835 30.11562149 7.45456146 29.30839142 6.62333679 28.47669983 C5.89282104 27.75044907 5.1623053 27.0241983 4.40965271 26.27593994 C3.45257998 25.32138098 3.45257998 25.32138098 2.47617245 24.34753799 C-0.47217754 21.6561088 -1.57967967 24.45053742 -4.0078125 26.875 Z M-26 123 C-26.33 123.66 -26.66 124.32 -27 125 C-26.01 124.67 -25.02 124.34 -24 124 C-24.66 123.67 -25.32 123.34 -26 123 Z M-24 125 C-23 127 -23 127 -23 127 Z M-21 129 C-20 131 -20 131 -20 131 Z " fill="#FFFFFF" transform="translate(109,0)"/>
</svg>
